<svg style="display: none;" aria-hidden="true" xmlns="http://www.w3.org/2000/svg" xmlns:xlink="http://www.w3.org/1999/xlink"><symbol viewBox="0 0 245 21" fill="none" id="svg-logo"><path d="M0.689706 20.5V0.619999H5.28171V16.468H14.9137V20.5H0.689706ZM24.5188 20.668C23.0441 20.668 21.7001 20.3787 20.4868 19.8C19.2735 19.2213 18.2375 18.4653 17.3788 17.532C16.5201 16.58 15.8481 15.4973 15.3628 14.284C14.8961 13.0707 14.6628 11.82 14.6628 10.532C14.6628 9.22533 14.9055 7.96533 15.3908 6.752C15.8948 5.53867 16.5855 4.47467 17.4628 3.56C18.3588 2.62667 19.4135 1.88933 20.6268 1.348C21.8401 0.787999 23.1655 0.507999 24.6028 0.507999C26.0775 0.507999 27.4215 0.797332 28.6348 1.376C29.8481 1.95467 30.8841 2.72 31.7428 3.672C32.6015 4.624 33.2641 5.70667 33.7308 6.92C34.1975 8.13333 34.4308 9.36533 34.4308 10.616C34.4308 11.9227 34.1788 13.1827 33.6748 14.396C33.1895 15.6093 32.5081 16.6827 31.6308 17.616C30.7535 18.5307 29.7081 19.268 28.4948 19.828C27.2815 20.388 25.9561 20.668 24.5188 20.668ZM19.3388 10.588C19.3388 11.3533 19.4508 12.1 19.6748 12.828C19.8988 13.5373 20.2255 14.172 20.6548 14.732C21.1028 15.292 21.6535 15.74 22.3068 16.076C22.9601 16.412 23.7068 16.58 24.5468 16.58C25.4241 16.58 26.1895 16.4027 26.8428 16.048C27.4961 15.6933 28.0375 15.236 28.4668 14.676C28.8961 14.0973 29.2135 13.4533 29.4188 12.744C29.6428 12.016 29.7548 11.2787 29.7548 10.532C29.7548 9.76667 29.6428 9.02933 29.4188 8.32C29.1948 7.592 28.8588 6.95733 28.4108 6.416C27.9628 5.856 27.4121 5.41733 26.7588 5.1C26.1241 4.764 25.3868 4.596 24.5468 4.596C23.6695 4.596 22.9041 4.77333 22.2508 5.128C21.6161 5.464 21.0748 5.912 20.6268 6.472C20.1975 7.032 19.8708 7.676 19.6468 8.404C19.4415 9.11333 19.3388 9.84133 19.3388 10.588ZM37.0842 20.5V0.619999H46.0442C46.9776 0.619999 47.8362 0.815999 48.6202 1.208C49.4229 1.6 50.1136 2.11333 50.6922 2.748C51.2709 3.38267 51.7189 4.10133 52.0362 4.904C52.3722 5.70667 52.5402 6.51867 52.5402 7.34C52.5402 7.956 52.4656 8.55333 52.3162 9.132C52.1669 9.692 51.9522 10.224 51.6722 10.728C51.3922 11.232 51.0469 11.6893 50.6362 12.1C50.2442 12.492 49.7962 12.828 49.2922 13.108L53.6602 20.5H48.4802L44.6722 14.088H41.6762V20.5H37.0842ZM41.6762 10.084H45.8762C46.4176 10.084 46.8842 9.832 47.2762 9.328C47.6682 8.80533 47.8642 8.14267 47.8642 7.34C47.8642 6.51867 47.6402 5.86533 47.1922 5.38C46.7442 4.89467 46.2589 4.652 45.7362 4.652H41.6762V10.084ZM69.8141 16.468V20.5H55.842V0.619999H69.5621V4.652H60.434V8.516H68.274V12.24H60.434V16.468H69.8141ZM88.2838 20.5V8.6L83.9718 17.252H81.5078L77.1958 8.6V20.5H72.6038V0.619999H77.5878L82.7398 11.008L87.9198 0.619999H92.8758V20.5H88.2838ZM96.6936 20.5V0.619999H101.286V20.5H96.6936ZM105.088 20.5V0.619999H113.572C114.524 0.619999 115.392 0.815999 116.176 1.208C116.979 1.6 117.66 2.11333 118.22 2.748C118.799 3.38267 119.247 4.10133 119.564 4.904C119.9 5.70667 120.068 6.51867 120.068 7.34C120.068 8.21733 119.909 9.05733 119.592 9.86C119.293 10.6627 118.864 11.3813 118.304 12.016C117.763 12.6507 117.1 13.1547 116.316 13.528C115.532 13.9013 114.664 14.088 113.712 14.088H109.68V20.5H105.088ZM109.68 10.084H113.432C113.973 10.084 114.44 9.85067 114.832 9.384C115.224 8.91733 115.42 8.236 115.42 7.34C115.42 6.87333 115.355 6.472 115.224 6.136C115.112 5.8 114.953 5.52 114.748 5.296C114.543 5.072 114.309 4.91333 114.048 4.82C113.787 4.708 113.525 4.652 113.264 4.652H109.68V10.084ZM134.461 6.444C134.405 6.36933 134.209 6.22933 133.873 6.024C133.537 5.81867 133.117 5.604 132.613 5.38C132.109 5.156 131.559 4.96 130.961 4.792C130.364 4.624 129.767 4.54 129.169 4.54C127.527 4.54 126.705 5.09067 126.705 6.192C126.705 6.528 126.789 6.808 126.957 7.032C127.144 7.256 127.405 7.46133 127.741 7.648C128.096 7.816 128.535 7.97467 129.057 8.124C129.58 8.27333 130.187 8.44133 130.877 8.628C131.829 8.88933 132.688 9.17867 133.453 9.496C134.219 9.79467 134.863 10.1773 135.385 10.644C135.927 11.092 136.337 11.6427 136.617 12.296C136.916 12.9493 137.065 13.7333 137.065 14.648C137.065 15.768 136.851 16.72 136.421 17.504C136.011 18.2693 135.46 18.8947 134.769 19.38C134.079 19.8467 133.285 20.192 132.389 20.416C131.493 20.6213 130.569 20.724 129.617 20.724C128.889 20.724 128.143 20.668 127.377 20.556C126.612 20.444 125.865 20.2853 125.137 20.08C124.409 19.856 123.7 19.5947 123.009 19.296C122.337 18.9973 121.712 18.652 121.133 18.26L123.149 14.256C123.224 14.3493 123.467 14.5267 123.877 14.788C124.288 15.0493 124.792 15.3107 125.389 15.572C126.005 15.8333 126.687 16.0667 127.433 16.272C128.18 16.4773 128.936 16.58 129.701 16.58C131.325 16.58 132.137 16.0853 132.137 15.096C132.137 14.7227 132.016 14.4147 131.773 14.172C131.531 13.9293 131.195 13.7147 130.765 13.528C130.336 13.3227 129.823 13.136 129.225 12.968C128.647 12.8 128.012 12.6133 127.321 12.408C126.407 12.128 125.613 11.8293 124.941 11.512C124.269 11.176 123.709 10.7933 123.261 10.364C122.832 9.93467 122.505 9.44 122.281 8.88C122.076 8.32 121.973 7.66667 121.973 6.92C121.973 5.87467 122.169 4.95067 122.561 4.148C122.953 3.34533 123.485 2.67333 124.157 2.132C124.829 1.572 125.604 1.152 126.481 0.871999C127.377 0.591999 128.32 0.451999 129.309 0.451999C130 0.451999 130.681 0.517332 131.353 0.647999C132.025 0.778666 132.669 0.946666 133.285 1.152C133.901 1.35733 134.471 1.59067 134.993 1.852C135.535 2.11333 136.029 2.37467 136.477 2.636L134.461 6.444ZM148.3 16.58C149.084 16.58 149.747 16.4213 150.288 16.104C150.829 15.768 151.268 15.3293 151.604 14.788C151.94 14.2467 152.173 13.6307 152.304 12.94C152.453 12.2307 152.528 11.512 152.528 10.784V0.619999H157.12V10.784C157.12 12.1653 156.943 13.4533 156.588 14.648C156.252 15.8427 155.72 16.888 154.992 17.784C154.283 18.68 153.368 19.3893 152.248 19.912C151.147 20.416 149.831 20.668 148.3 20.668C146.713 20.668 145.36 20.3973 144.24 19.856C143.12 19.3147 142.205 18.596 141.496 17.7C140.805 16.7853 140.292 15.7307 139.956 14.536C139.639 13.3413 139.48 12.0907 139.48 10.784V0.619999H144.072V10.784C144.072 11.5493 144.147 12.2773 144.296 12.968C144.445 13.6587 144.688 14.2747 145.024 14.816C145.36 15.3573 145.789 15.7867 146.312 16.104C146.853 16.4213 147.516 16.58 148.3 16.58ZM176.358 20.5V8.6L172.046 17.252H169.582L165.27 8.6V20.5H160.678V0.619999H165.662L170.814 11.008L175.994 0.619999H180.95V20.5H176.358ZM184.376 20.5V15.936H188.044V20.5H184.376Z" fill="#fff"/><path d="M196.059 9.132V20.5H191.467V0.619999H195.051L204.319 12.296V0.619999H208.911V20.5H205.215L196.059 9.132ZM226.685 16.468V20.5H212.713V0.619999H226.433V4.652H217.305V8.516H225.145V12.24H217.305V16.468H226.685ZM244.623 4.652H238.575V20.5H233.983V4.652H227.907V0.619999H244.623V4.652Z" fill="#42A9ED"/></symbol><symbol viewBox="0 0 16 13" fill="none" id="svg-mail"><path d="M14.7503 10.8491C14.7503 10.9914 14.6248 11.117 14.4825 11.117H2.16106C2.01876 11.117 1.89321 10.9914 1.89321 10.8491V4.42057C2.06899 4.62146 2.26151 4.80561 2.47077 4.97302C3.66776 5.89378 4.87312 6.83128 6.03662 7.80226C6.66441 8.32961 7.44287 8.97414 8.31341 8.97414H8.32178H8.33015C9.20068 8.97414 9.97914 8.32961 10.6069 7.80226C11.7704 6.83128 12.9758 5.89378 14.1728 4.97302C14.382 4.80561 14.5746 4.62146 14.7503 4.42057V10.8491ZM14.7503 2.05171C14.7503 2.7632 14.064 3.69233 13.5199 4.11923C12.3982 4.99813 11.2766 5.88541 10.1633 6.77269C9.71966 7.13262 8.91609 7.90271 8.33015 7.90271H8.32178H8.31341C7.72747 7.90271 6.9239 7.13262 6.48026 6.77269C5.36698 5.88541 4.24533 4.99813 3.12367 4.11923C2.37033 3.52492 1.89321 2.69624 1.89321 1.742C1.89321 1.5997 2.01876 1.47414 2.16106 1.47414H14.4825C14.8006 1.47414 14.7503 1.84244 14.7503 2.05171ZM15.8218 1.742C15.8218 1.00539 15.2191 0.40271 14.4825 0.40271H2.16106C1.42446 0.40271 0.821777 1.00539 0.821777 1.742V10.8491C0.821777 11.5857 1.42446 12.1884 2.16106 12.1884H14.4825C15.2191 12.1884 15.8218 11.5857 15.8218 10.8491V1.742Z" fill="#3E9CDC"/></symbol><symbol viewBox="0 0 21 20" fill="none" id="svg-qiwi"><path d="M16.9118 13.4559C16.9719 13.8435 16.845 14.0076 16.7167 14.0076C16.5885 14.0076 16.4028 13.85 16.1957 13.5373C15.9887 13.2245 15.9179 12.8769 16.0181 12.6986C16.0558 12.6368 16.1167 12.5915 16.1881 12.572C16.2595 12.5525 16.3359 12.5604 16.4015 12.5939C16.7421 12.718 16.8757 13.2233 16.9118 13.4559ZM15.0241 14.3061C15.4343 14.6408 15.5585 15.0389 15.3421 15.3193C15.2762 15.3977 15.1922 15.46 15.0968 15.5013C15.0014 15.5426 14.8974 15.5617 14.793 15.557C14.5642 15.5574 14.3425 15.4801 14.1665 15.3386C13.7951 15.0246 13.6856 14.5142 13.9287 14.2247C13.9824 14.1653 14.0494 14.1186 14.1247 14.0881C14.2 14.0577 14.2814 14.0443 14.3629 14.049C14.6077 14.0569 14.8418 14.1479 15.0241 14.3061V14.3061ZM14.3402 17.5367C16.1022 17.5367 18.0139 18.1208 20.1313 19.9351C20.3424 20.1161 20.6243 19.8912 20.4399 19.6651C18.3599 17.1258 16.4322 16.6412 14.5178 16.2329C12.172 15.7315 10.9643 14.4535 10.1187 13.0514C9.95167 12.7723 9.87552 12.8214 9.86083 13.1806C9.84679 13.7131 9.88841 14.2456 9.98507 14.7701V14.7701C9.89022 14.7701 9.79403 14.7701 9.69918 14.7701C8.49698 14.7701 7.32179 14.4252 6.32219 13.7792C5.3226 13.1331 4.54352 12.2148 4.08346 11.1404C3.6234 10.0661 3.50302 8.88385 3.73756 7.7433C3.9721 6.60275 4.55101 5.55509 5.40109 4.7328C6.25117 3.91051 7.33424 3.35053 8.51334 3.12366C9.69244 2.89679 10.9146 3.01322 12.0253 3.45824C13.136 3.90326 14.0853 4.65688 14.7532 5.62379C15.4211 6.5907 15.7776 7.72748 15.7776 8.89037C15.7782 9.11877 15.7653 9.347 15.7389 9.57397C15.0985 9.49597 14.4514 9.48427 13.8085 9.53908C13.5773 9.55846 13.6107 9.6683 13.7844 9.69285C15.7883 10.0431 17.175 11.2435 17.4902 13.4339C17.4914 13.445 17.4961 13.4555 17.5037 13.4638C17.5114 13.4722 17.5215 13.478 17.5328 13.4804C17.544 13.4828 17.5558 13.4818 17.5664 13.4774C17.577 13.473 17.5859 13.4654 17.5918 13.4559C18.6342 11.7703 19.0706 9.79838 18.8329 7.84774C18.5952 5.89709 17.6968 4.07738 16.2778 2.67245C14.8588 1.26752 12.999 0.356356 10.9885 0.0810911C8.97799 -0.194174 6.92984 0.181935 5.1635 1.15075C3.39717 2.11957 2.01197 3.62662 1.22396 5.43683C0.435958 7.24704 0.289461 9.25863 0.807322 11.1578C1.32518 13.057 2.47828 14.737 4.08676 15.9358C5.69524 17.1346 7.66865 17.7848 9.69918 17.7849C11.0418 17.7887 12.379 17.5355 14.3402 17.5355V17.5367Z" fill="#3E9CDC"/></symbol><symbol viewBox="0 0 55 55" fill="none" id="svg-scheme-1"><path d="M33.9286 24.9286C33.9286 29.8906 29.8906 33.9286 24.9286 33.9286C19.9665 33.9286 15.9286 29.8906 15.9286 24.9286C15.9286 19.9665 19.9665 15.9286 24.9286 15.9286C29.8906 15.9286 33.9286 19.9665 33.9286 24.9286ZM44.2143 41.6429C44.2143 40.9598 43.933 40.2969 43.471 39.8348L36.5803 32.9442C38.2076 30.5937 39.0714 27.7812 39.0714 24.9286C39.0714 17.1138 32.7433 10.7857 24.9286 10.7857C17.1138 10.7857 10.7857 17.1138 10.7857 24.9286C10.7857 32.7433 17.1138 39.0714 24.9286 39.0714C27.7812 39.0714 30.5937 38.2076 32.9442 36.5803L39.8348 43.4509C40.2969 43.933 40.9598 44.2143 41.6429 44.2143C43.0491 44.2143 44.2143 43.0491 44.2143 41.6429Z" fill="#fff"/></symbol><symbol viewBox="0 0 55 55" fill="none" id="svg-scheme-2"><path d="M37.7857 35.2143C37.7857 36.6205 36.6205 37.7857 35.2143 37.7857C33.808 37.7857 32.6429 36.6205 32.6429 35.2143C32.6429 33.808 33.808 32.6428 35.2143 32.6428C36.6205 32.6428 37.7857 33.808 37.7857 35.2143ZM22.3571 19.7857C22.3571 21.1919 21.192 22.3571 19.7857 22.3571C18.3795 22.3571 17.2143 21.1919 17.2143 19.7857C17.2143 18.3794 18.3795 17.2143 19.7857 17.2143C21.192 17.2143 22.3571 18.3794 22.3571 19.7857ZM42.9286 35.2143C42.9286 30.9553 39.4732 27.5 35.2143 27.5C30.9554 27.5 27.5 30.9553 27.5 35.2143C27.5 39.4732 30.9554 42.9286 35.2143 42.9286C39.4732 42.9286 42.9286 39.4732 42.9286 35.2143ZM41 13.3571C41 12.654 40.4174 12.0714 39.7143 12.0714H36.5C36.0982 12.0714 35.7165 12.2723 35.4754 12.5937L14.2612 40.8794C14.1004 41.1004 14 41.3616 14 41.6428C14 42.346 14.5826 42.9286 15.2857 42.9286H18.5C18.9018 42.9286 19.2835 42.7277 19.5246 42.4062L30.1317 28.2634L40.7388 14.1205C40.8996 13.8995 41 13.6384 41 13.3571ZM27.5 19.7857C27.5 15.5268 24.0446 12.0714 19.7857 12.0714C15.5268 12.0714 12.0714 15.5268 12.0714 19.7857C12.0714 24.0446 15.5268 27.5 19.7857 27.5C24.0446 27.5 27.5 24.0446 27.5 19.7857Z" fill="#fff"/></symbol><symbol viewBox="0 0 55 56" fill="none" id="svg-scheme-3"><path d="M23.9932 29.3724V28.0867C23.9932 27.7251 24.2745 27.4439 24.6361 27.4439H38.7789C39.1405 27.4439 39.4218 27.7251 39.4218 28.0867V29.3724C39.4218 29.734 39.1405 30.0153 38.7789 30.0153H24.6361C24.2745 30.0153 23.9932 29.734 23.9932 29.3724zM24.6361 32.5867H38.7789C39.1405 32.5867 39.4218 32.868 39.4218 33.2296V34.5153C39.4218 34.8769 39.1405 35.1581 38.7789 35.1581H24.6361C24.2745 35.1581 23.9932 34.8769 23.9932 34.5153V33.2296C23.9932 32.868 24.2745 32.5867 24.6361 32.5867zM24.6361 37.7296H38.7789C39.1405 37.7296 39.4218 38.0108 39.4218 38.3724V39.6581C39.4218 40.0198 39.1405 40.301 38.7789 40.301H24.6361C24.2745 40.301 23.9932 40.0198 23.9932 39.6581V38.3724C23.9932 38.0108 24.2745 37.7296 24.6361 37.7296z" fill="#fff"/><path fill-rule="evenodd" clip-rule="evenodd" d="M16.2789 21.3148C12.1837 21.3148 8.86392 17.995 8.86392 13.8998C8.86392 9.80461 12.1837 6.4848 16.2789 6.4848C19.7229 6.4848 22.6185 8.83277 23.4523 12.0153H36.2075C37.2722 12.0153 38.7588 12.6381 39.5021 13.3814L45.77 19.6492C46.5133 20.3925 47.1361 21.8791 47.1361 22.9439V46.0867C47.1361 47.1515 46.2722 48.0153 45.2075 48.0153H18.2075C17.1428 48.0153 16.2789 47.1515 16.2789 46.0867L16.2789 21.3148ZM18.8504 20.8568C21.4729 19.8871 23.397 17.477 23.6625 14.5867H34.2789V22.9439C34.2789 24.0086 35.1428 24.8724 36.2075 24.8724H44.5646V45.4439H18.8504V20.8568ZM37.674 15.1894C37.5334 15.0488 37.1919 14.868 36.8504 14.7474V22.301H44.4039C44.2834 21.9595 44.1026 21.618 43.962 21.4773L37.674 15.1894ZM17.2789 14.8998H21.2789V12.8998H17.2789V8.89984H15.2789V12.8998H11.2789V14.8998H15.2789V18.8998H17.2789V14.8998Z" fill="#fff"/></symbol><symbol viewBox="0 0 56 56" fill="none" id="svg-scheme-4"><path d="M44.7952 39.1071C44.7952 39.4487 44.4938 39.75 44.1523 39.75H14.5809C14.2393 39.75 13.938 39.4487 13.938 39.1071V23.6786C14.3599 24.1607 14.8219 24.6027 15.3242 25.0045C18.1969 27.2143 21.0898 29.4643 23.8822 31.7946C25.3889 33.0603 27.2572 34.6071 29.3465 34.6071H29.3666H29.3867C31.476 34.6071 33.3443 33.0603 34.851 31.7946C37.6434 29.4643 40.5362 27.2143 43.409 25.0045C43.9112 24.6027 44.3733 24.1607 44.7952 23.6786V39.1071ZM44.7952 17.9933C44.7952 19.7009 43.1478 21.9308 41.842 22.9553C39.1501 25.0647 36.4581 27.1942 33.7862 29.3237C32.7215 30.1875 30.7929 32.0357 29.3867 32.0357H29.3666H29.3465C27.9402 32.0357 26.0117 30.1875 24.9469 29.3237C22.2751 27.1942 19.5831 25.0647 16.8911 22.9553C15.0831 21.529 13.938 19.5402 13.938 17.25C13.938 16.9085 14.2393 16.6071 14.5809 16.6071H44.1523C44.9157 16.6071 44.7952 17.4911 44.7952 17.9933ZM47.3666 17.25C47.3666 15.4821 45.9202 14.0357 44.1523 14.0357H14.5809C12.813 14.0357 11.3666 15.4821 11.3666 17.25V39.1071C11.3666 40.875 12.813 42.3214 14.5809 42.3214H44.1523C45.9202 42.3214 47.3666 40.875 47.3666 39.1071V17.25Z" fill="#fff"/></symbol><symbol viewBox="0 0 56 56" fill="none" id="svg-scheme-5"><path d="M24.7287 32.5357V30.6071H27.3002V24.8214H27.26C26.9386 25.3237 26.6372 25.5446 26.1551 25.9665L24.6082 24.3594L27.5814 21.6071H29.8716V30.6071H32.443V32.5357H24.7287ZM35.0145 27.3928C35.0145 23.7366 32.8046 19.0357 28.5859 19.0357C24.3671 19.0357 22.1573 23.7366 22.1573 27.3928C22.1573 31.0491 24.3671 35.75 28.5859 35.75C32.8046 35.75 35.0145 31.0491 35.0145 27.3928ZM45.3002 32.5357C42.4676 32.5357 40.1573 34.846 40.1573 37.6786H17.0145C17.0145 34.846 14.7042 32.5357 11.8716 32.5357V22.25C14.7042 22.25 17.0145 19.9397 17.0145 17.1071H40.1573C40.1573 19.9397 42.4676 22.25 45.3002 22.25V32.5357ZM47.8716 15.8214C47.8716 15.1183 47.289 14.5357 46.5859 14.5357H10.5859C9.88276 14.5357 9.30017 15.1183 9.30017 15.8214V38.9643C9.30017 39.6674 9.88276 40.25 10.5859 40.25H46.5859C47.289 40.25 47.8716 39.6674 47.8716 38.9643V15.8214Z" fill="#fff"/></symbol><symbol viewBox="0 0 12 14" fill="none" id="svg-vk"><path d="M11.1804 9.28625C11.1804 9.93665 11.0574 10.5079 10.8113 11.0001C10.5652 11.4923 10.2341 11.8995 9.81812 12.2218C9.32593 12.6085 8.78394 12.8839 8.19214 13.048C7.6062 13.212 6.85913 13.2941 5.95093 13.2941H0.712646V0.207153H5.33569C6.29663 0.207153 7.02319 0.245239 7.51538 0.321411C8.01343 0.391724 8.47925 0.544067 8.91284 0.778442C9.38159 1.0304 9.73022 1.36731 9.95874 1.78918C10.1931 2.21106 10.3103 2.69739 10.3103 3.24817C10.3103 3.88684 10.1492 4.4552 9.8269 4.95325C9.5105 5.45129 9.07104 5.8175 8.50854 6.05188V6.12219C9.31714 6.29211 9.9646 6.64075 10.4509 7.16809C10.9373 7.68958 11.1804 8.39563 11.1804 9.28625ZM6.97046 3.90735C6.97046 3.69641 6.91479 3.47961 6.80347 3.25696C6.698 3.0343 6.53101 2.87317 6.30249 2.77356C6.08569 2.67981 5.82788 2.63 5.52905 2.62415C5.23608 2.61243 4.79663 2.60657 4.21069 2.60657H3.98218V5.37512H4.39526C4.95776 5.37512 5.35034 5.36926 5.573 5.35754C5.80151 5.34583 6.03589 5.2843 6.27612 5.17297C6.53979 5.04993 6.72144 4.88 6.82104 4.66321C6.92065 4.44641 6.97046 4.19446 6.97046 3.90735ZM7.79663 9.22473C7.79663 8.82043 7.7146 8.50403 7.55054 8.27551C7.38647 8.047 7.14038 7.87415 6.81226 7.75696C6.61304 7.68079 6.33765 7.63977 5.98608 7.63391C5.64038 7.62219 5.17456 7.61633 4.58862 7.61633H3.98218V10.8947H4.15796C5.01343 10.8947 5.60522 10.8888 5.93335 10.8771C6.26147 10.8654 6.59546 10.7863 6.9353 10.6398C7.23413 10.5109 7.45093 10.3234 7.58569 10.0773C7.72632 9.82532 7.79663 9.54114 7.79663 9.22473Z" fill="#3E9CDC"/></symbol><symbol viewBox="0 0 19 18" fill="none" id="svg-webmoney"><path d="M9.34077 0C10.751 0 12.0928 0.323103 13.2969 0.901077C13.4857 0.986269 13.6758 1.08823 13.864 1.19028L13.0384 1.92159L11.8007 0.646297L9.66802 2.51651L8.41214 1.17307L4.49048 4.65889L7.00126 7.39646L6.02108 8.24641L8.49822 10.984L7.51795 11.8336L11.0613 15.7274L13.1585 13.823L14.9826 15.8639C14.6211 16.136 14.2255 16.4086 13.796 16.6462C12.4886 17.3773 10.9747 17.8016 9.35814 17.8016C4.38691 17.8016 0.345546 13.8066 0.345546 8.89314C0.327991 4.01286 4.37007 0 9.34077 0ZM7.68931 8.34864L9.83937 6.44418L11.7662 8.56952L9.61567 10.4738L7.68931 8.34864ZM9.22053 12.0214L11.3531 10.1001L13.2969 12.2253L11.1467 14.1298L9.22053 12.0214ZM6.15942 4.72713L8.30886 2.82267L10.2352 4.948L8.08507 6.85238L6.15942 4.72713ZM10.0974 3.70661L11.6971 2.27842L13.1423 3.85978L11.5426 5.30484L10.0974 3.70661ZM12.9529 10.2528L14.5521 8.82456L15.9972 10.4224L14.3974 11.8516L12.9529 10.2528ZM14.3631 13.4668L15.9629 12.0382L17.4068 13.6195L15.8076 15.0644L14.3631 13.4668ZM15.0168 6.12107L16.0831 5.16879L17.0459 6.22339L15.9799 7.17531L15.0168 6.12107ZM13.6408 2.97548L14.7071 2.00651L15.6707 3.07753L14.6036 4.02972L13.6408 2.97548ZM16.3755 9.26693L17.4417 8.31474L18.422 9.36899L17.3389 10.3209L16.3755 9.26693ZM11.5768 6.90341L13.1766 5.47513L14.6211 7.05614L13.022 8.48469L11.5768 6.90341Z" fill="#3E9CDC"/></symbol><symbol viewBox="0 0 15 18" fill="none" id="svg-ym"><path fill-rule="evenodd" clip-rule="evenodd" d="M0.779835 8.9307C0.779835 7.94664 0.863032 7.32213 2.91811 5.80087C4.61949 4.54138 10.073 0.237427 10.073 0.237427V7.42209H14.2203V17.7627H2.07518C1.36275 17.7627 0.779633 17.1844 0.779633 16.4778L0.779835 8.93076V8.9307Z" fill="#3E9CDC"/><path fill-rule="evenodd" clip-rule="evenodd" d="M10.073 7.422V11.585L2.45212 16.7335L12.0874 13.6246V7.422H10.073Z" fill="#000" fill-opacity=".2"/><path fill-rule="evenodd" clip-rule="evenodd" d="M6.5904 7.20685C7.03609 6.68023 7.68696 6.49436 8.04435 6.79173C8.40174 7.08915 8.3303 7.75719 7.8846 8.2838C7.43925 8.81035 6.78811 8.99602 6.43072 8.69859C6.07333 8.40123 6.14497 7.73333 6.5904 7.20678V7.20685Z" fill="#231F20"/></symbol></svg>